<svg width="16" height="17" viewBox="0 0 16 17" fill="none" xmlns="http://www.w3.org/2000/svg">
<g id="SVG">
<path id="Vector" fill-rule="evenodd" clip-rule="evenodd" d="M10.6467 2.14665C10.7405 2.05302 10.8675 2.00043 11 2.00043C11.1325 2.00043 11.2596 2.05302 11.3534 2.14665L14.3534 5.14665C14.447 5.2404 14.4996 5.36749 14.4996 5.49999C14.4996 5.63249 14.447 5.75957 14.3534 5.85332L11.3534 8.85332C11.3076 8.90245 11.2524 8.94185 11.1911 8.96917C11.1297 8.9965 11.0635 9.0112 10.9964 9.01238C10.9293 9.01357 10.8626 9.00122 10.8003 8.97607C10.7381 8.95092 10.6815 8.91349 10.634 8.86601C10.5865 8.81853 10.5491 8.76198 10.524 8.69972C10.4988 8.63746 10.4865 8.57077 10.4877 8.50364C10.4888 8.4365 10.5035 8.3703 10.5309 8.30896C10.5582 8.24763 10.5976 8.19243 10.6467 8.14665L12.7934 5.99999H5.00005C4.86744 5.99999 4.74026 5.94731 4.64649 5.85354C4.55273 5.75977 4.50005 5.6326 4.50005 5.49999C4.50005 5.36738 4.55273 5.2402 4.64649 5.14643C4.74026 5.05267 4.86744 4.99999 5.00005 4.99999H12.7934L10.6467 2.85332C10.5531 2.75957 10.5005 2.63249 10.5005 2.49999C10.5005 2.36749 10.5531 2.2404 10.6467 2.14665ZM5.35338 8.14665C5.44702 8.2404 5.49961 8.36749 5.49961 8.49999C5.49961 8.63249 5.44702 8.75957 5.35338 8.85332L3.20671 11H11C11.1327 11 11.2598 11.0527 11.3536 11.1464C11.4474 11.2402 11.5 11.3674 11.5 11.5C11.5 11.6326 11.4474 11.7598 11.3536 11.8535C11.2598 11.9473 11.1327 12 11 12H3.20671L5.35338 14.1467C5.40251 14.1924 5.44191 14.2476 5.46924 14.309C5.49656 14.3703 5.51126 14.4365 5.51244 14.5036C5.51363 14.5708 5.50128 14.6375 5.47613 14.6997C5.45098 14.762 5.41355 14.8185 5.36607 14.866C5.31859 14.9135 5.26204 14.9509 5.19978 14.9761C5.13752 15.0012 5.07084 15.0136 5.0037 15.0124C4.93656 15.0112 4.87036 14.9965 4.80902 14.9692C4.74769 14.9418 4.69249 14.9024 4.64671 14.8533L1.64672 11.8533C1.55308 11.7596 1.50049 11.6325 1.50049 11.5C1.50049 11.3675 1.55308 11.2404 1.64672 11.1467L4.64671 8.14665C4.74047 8.05302 4.86755 8.00043 5.00005 8.00043C5.13255 8.00043 5.25963 8.05302 5.35338 8.14665Z" fill="black"/>
</g>
</svg>
